<svg version="1.1" id="Layer_2" xmlns="http://www.w3.org/2000/svg" x="0" y="0" viewBox="0 0 100 100" xml:space="preserve"><style>.st4{fill:#6b686a}.st5{fill:#d1ae18}.st8{fill:#a09d9f}</style><radialGradient id="SVGID_1_" cx="50.23" cy="40.277" r="66.332" fx="50.241" fy="3.603" gradientTransform="matrix(1 0 0 .4097 0 23.777)" gradientUnits="userSpaceOnUse"><stop offset=".4" stop-color="#636363"/><stop offset=".713" stop-color="#d8d8d8"/></radialGradient><path d="M50 47.08L7.14 42.73v42.49c5.12 1.38 29.36 7.7 42.86 7.7s37.74-6.32 42.86-7.7V42.73L50 47.08z" fill="url(#SVGID_1_)"/><radialGradient id="SVGID_2_" cx="-32.691" cy="14.94" r="10.327" fx="-39.468" fy="22.731" gradientTransform="rotate(-14.211 256.991 -222.492)" gradientUnits="userSpaceOnUse"><stop offset=".174" stop-color="#636363"/><stop offset=".798" stop-color="#d8d8d8"/></radialGradient><path d="M38.98 82.64c-2.75 1.25-6.09.93-8.56-1.04a8.12 8.12 0 01-3.04-5.51c-.04-.39.24-.75.63-.79.39-.04.75.24.79.63.2 1.8 1.09 3.42 2.51 4.55 2.62 2.09 6.43 1.94 8.87-.35.29-.27.74-.26 1.01.03.27.29.26.74-.03 1.01-.65.62-1.39 1.11-2.18 1.47z" fill="url(#SVGID_2_)"/><radialGradient id="SVGID_3_" cx="-69.06" cy="-295.432" r="10.723" fx="-76.098" fy="-287.341" gradientTransform="rotate(-69.383 265.163 -223.574)" gradientUnits="userSpaceOnUse"><stop offset=".174" stop-color="#636363"/><stop offset=".798" stop-color="#d8d8d8"/></radialGradient><path d="M86.16 62.36c-.56 3.09-2.82 5.74-5.96 6.68a8.51 8.51 0 01-6.5-.67.745.745 0 11.71-1.31c1.66.9 3.56 1.09 5.37.56 3.33-.99 5.47-4.33 4.96-7.77-.06-.41.22-.78.63-.84.41-.06.78.22.84.63.14.91.11 1.83-.05 2.72z" fill="url(#SVGID_3_)"/><path d="M95.5 42.46L50 47.08 4.5 42.46V4.45h91v38.01z" fill="#d8d8d8"/><path class="st4" d="M50 95.55c-15.44 0-43.36-7.73-44.54-8.06l-.96-.27V4.45h91v82.77l-.96.27c-1.18.33-29.1 8.06-44.54 8.06zM7.14 85.21c5.12 1.38 29.36 7.7 42.86 7.7s37.74-6.32 42.86-7.7V7.09H7.14v78.12z"/><path class="st5" d="M49.65 24c-3.58 0-6.5 2.92-6.5 6.5s2.92 6.5 6.5 6.5 6.5-2.92 6.5-6.5-2.91-6.5-6.5-6.5z"/><path class="st5" d="M49.65 39.11c-4.75 0-8.61-3.86-8.61-8.61s3.86-8.61 8.61-8.61 8.61 3.86 8.61 8.61-3.86 8.61-8.61 8.61z"/><path d="M49.65 39.11c-4.75 0-8.61-3.86-8.61-8.61s3.86-8.61 8.61-8.61 8.61 3.86 8.61 8.61-3.86 8.61-8.61 8.61zm0-15.11c-3.58 0-6.5 2.92-6.5 6.5s2.92 6.5 6.5 6.5 6.5-2.92 6.5-6.5-2.91-6.5-6.5-6.5z" fill="#a5782f"/><path d="M45.05 30.7c-.44 0-.79-.35-.79-.79 0-2.65 2.16-4.8 4.8-4.8.44 0 .79.35.79.79s-.35.79-.79.79c-1.78 0-3.22 1.45-3.22 3.22 0 .44-.35.79-.79.79z" fill="#f2df8f"/><path class="st8" d="M89.57 32.59h-1.32v-3.96h1.32v3.96zm0-6.59h-1.32v-3.96h1.32V26zm0-6.59h-1.32v-3.96h1.32v3.96zm0-6.6h-1.32V8.85h1.32v3.96zM11.75 32.59h-1.32v-3.96h1.32v3.96zm0-6.59h-1.32v-3.96h1.32V26zm0-6.59h-1.32v-3.96h1.32v3.96zm0-6.6h-1.32V8.85h1.32v3.96zM51.03 89.6L51 88.29c1.19-.03 2.51-.1 3.91-.22l.11 1.31c-1.43.12-2.77.2-3.99.22zm-2.68-.01c-1.22-.04-2.56-.13-3.99-.27l.12-1.31c1.4.13 2.72.22 3.91.26l-.04 1.32zm9.32-.48l-.15-1.31c1.22-.14 2.54-.31 3.91-.51l.19 1.3c-1.38.2-2.71.38-3.95.52zm-15.95-.07c-1.24-.15-2.57-.33-3.94-.54l.2-1.3c1.36.21 2.67.39 3.9.53l-.16 1.31zm22.52-.86l-.21-1.3c1.29-.21 2.59-.44 3.89-.68l.24 1.3c-1.32.24-2.63.47-3.92.68zm-29.08-.1c-1.3-.22-2.61-.45-3.91-.7l.24-1.3c1.29.24 2.59.48 3.89.69l-.22 1.31zM70.75 87l-.25-1.3c1.31-.26 2.6-.52 3.87-.79l.27 1.29c-1.27.27-2.57.54-3.89.8zm-42.1-.12c-1.32-.26-2.62-.53-3.89-.8l.28-1.29c1.27.27 2.56.54 3.87.8l-.26 1.29zm48.58-1.24l-.28-1.29c1.33-.29 2.62-.59 3.85-.88l.3 1.28c-1.24.3-2.53.6-3.87.89zm-55.05-.13c-1.34-.3-2.64-.6-3.87-.89l.3-1.28c1.23.29 2.52.59 3.85.88l-.28 1.29zm61.49-1.36l-.31-1.28c1.4-.34 2.7-.66 3.84-.95l.32 1.28c-1.14.29-2.44.61-3.85.95zm-67.93-.14c-1.42-.35-2.72-.67-3.85-.96l.33-1.28c1.13.29 2.42.61 3.84.96l-.32 1.28zm73.83-2.89h-1.32v-3.96h1.32v3.96zm-77.82-.61h-1.32v-3.96h1.32v3.96zm77.82-5.98h-1.32v-3.96h1.32v3.96zm-77.82-.61h-1.32v-3.96h1.32v3.96zm77.82-5.99h-1.32v-3.96h1.32v3.96zm-77.82-.61h-1.32v-3.96h1.32v3.96zm77.82-5.98h-1.32v-3.96h1.32v3.96zm-77.82-.61h-1.32v-3.96h1.32v3.96zm77.82-5.99h-1.32v-3.96h1.32v3.96zm-77.82-.61h-1.32v-3.96h1.32v3.96zm77.82-5.98h-1.32v-3.96h1.32v3.96zm-77.82-.61h-1.32v-3.96h1.32v3.96z"/><g><path class="st4" d="M50 47.08L4.5 42.46V4.45h91v38.01L50 47.08zM7.14 40.07L50 44.43l42.86-4.35V7.09H7.14v32.98z"/></g><g><radialGradient id="SVGID_4_" cx="51.247" cy="88.903" r="14.252" fx="41.893" fy="99.656" gradientTransform="rotate(5.354 250.81 -215.01)" gradientUnits="userSpaceOnUse"><stop offset=".174" stop-color="#636363"/><stop offset=".798" stop-color="#d8d8d8"/></radialGradient><path d="M27.86 76.05c-4.16.36-8.35-1.61-10.65-5.31-1.6-2.57-2.1-5.62-1.41-8.57.12-.53.66-.86 1.19-.74.53.12.86.66.74 1.19a9.246 9.246 0 001.17 7.07c2.44 3.93 7.46 5.49 11.69 3.65a.986.986 0 11.79 1.81c-1.14.51-2.33.8-3.52.9z" fill="url(#SVGID_4_)"/></g><g><radialGradient id="SVGID_5_" cx="-72.511" cy="-61.362" r="14.252" fx="-81.865" fy="-50.609" gradientTransform="rotate(-28.397 247.024 -217.7)" gradientUnits="userSpaceOnUse"><stop offset=".174" stop-color="#636363"/><stop offset=".798" stop-color="#d8d8d8"/></radialGradient><path d="M47.64 75.42c-3.26 2.61-7.84 3.3-11.81 1.5-2.76-1.25-4.87-3.5-5.93-6.34a.989.989 0 01.58-1.27.989.989 0 011.27.58 9.29 9.29 0 004.9 5.23c4.21 1.91 9.26.42 11.75-3.46.3-.46.91-.59 1.37-.3.46.29.59.91.3 1.37a11.17 11.17 0 01-2.43 2.69z" fill="url(#SVGID_5_)"/></g><g><radialGradient id="SVGID_6_" cx="-70.615" cy="-74.571" r="14.252" fx="-79.969" fy="-63.818" gradientTransform="rotate(-33.75 247.506 -217.132)" gradientUnits="userSpaceOnUse"><stop offset=".174" stop-color="#636363"/><stop offset=".798" stop-color="#d8d8d8"/></radialGradient><path d="M69.87 81.07c-3 2.9-7.5 4.02-11.61 2.6-2.86-.99-5.17-3.03-6.5-5.76a.98.98 0 01.46-1.32.989.989 0 011.32.46c1.1 2.25 3 3.94 5.37 4.75 4.37 1.51 9.26-.44 11.38-4.54.25-.49.85-.68 1.33-.43.49.25.68.85.43 1.33-.59 1.1-1.33 2.08-2.18 2.91z" fill="url(#SVGID_6_)"/></g><g><radialGradient id="SVGID_7_" cx="2.659" cy="-443.39" r="14.252" fx="-6.695" fy="-432.637" gradientTransform="scale(-1) rotate(86.055 -235.024 -291.178)" gradientUnits="userSpaceOnUse"><stop offset=".174" stop-color="#636363"/><stop offset=".798" stop-color="#d8d8d8"/></radialGradient><path d="M73.14 59.34c1.03 4.05-.24 8.5-3.52 11.37a11.3 11.3 0 01-8.23 2.78.985.985 0 01-.92-1.05c.04-.55.51-.96 1.05-.92 2.5.17 4.91-.65 6.79-2.29 3.48-3.04 4.22-8.25 1.71-12.13a.987.987 0 01.29-1.37.987.987 0 011.37.29c.69 1.03 1.17 2.16 1.46 3.32z" fill="url(#SVGID_7_)"/></g><g><radialGradient id="SVGID_8_" cx="-83.033" cy="-298.922" r="10.161" fx="-89.702" fy="-291.256" gradientTransform="rotate(-67.846 268.924 -222.937)" gradientUnits="userSpaceOnUse"><stop offset=".174" stop-color="#636363"/><stop offset=".798" stop-color="#d8d8d8"/></radialGradient><path d="M71.53 73.04c-.61 2.91-2.82 5.37-5.82 6.17-2.09.56-4.27.28-6.14-.8a.704.704 0 01.7-1.22c1.55.89 3.35 1.13 5.07.66 3.18-.86 5.29-3.96 4.9-7.23-.05-.39.23-.74.62-.78.39-.05.74.23.78.62.11.88.06 1.75-.11 2.58z" fill="url(#SVGID_8_)"/></g><g><radialGradient id="SVGID_9_" cx="176.091" cy="112.097" r="11.386" fx="168.619" fy="120.687" gradientTransform="rotate(22.86 232.421 -270.778)" gradientUnits="userSpaceOnUse"><stop offset=".174" stop-color="#636363"/><stop offset=".798" stop-color="#d8d8d8"/></radialGradient><path d="M33.19 66.53c-3.26-.73-5.98-3.24-6.84-6.6-.6-2.35-.25-4.78.98-6.87.22-.38.71-.5 1.08-.28.38.22.5.71.28 1.08a7.408 7.408 0 00-.81 5.67c.91 3.58 4.37 5.98 8.03 5.59.43-.05.82.27.87.7.05.43-.27.82-.7.87a9 9 0 01-2.89-.16z" fill="url(#SVGID_9_)"/></g></svg>